<svg version="1.1" id="Layer_1" xmlns="http://www.w3.org/2000/svg" xmlns:xlink="http://www.w3.org/1999/xlink" x="0px" y="0px"
	 width="100%" viewBox="0 0 223 223" enable-background="new 0 0 223 223" xml:space="preserve">
<path fill="#FDFDFD" opacity="1.000000" stroke="none" 
	d="
M152.000000,224.000000 
	C101.333336,224.000000 51.166672,224.000000 1.000007,224.000000 
	C1.000005,149.666672 1.000005,75.333351 1.000002,1.000017 
	C75.333321,1.000011 149.666641,1.000011 223.999969,1.000006 
	C223.999985,75.333321 223.999985,149.666641 224.000000,223.999969 
	C200.166672,224.000000 176.333328,224.000000 152.000000,224.000000 
M168.272003,7.231474 
	C140.075592,7.078718 119.263588,24.806616 114.579475,52.967369 
	C106.909721,99.077660 58.029934,124.368225 15.930513,104.019737 
	C14.529909,103.342758 13.057233,102.814903 10.900547,101.919662 
	C10.900547,140.038177 10.900547,177.237335 10.900547,214.664841 
	C45.406361,214.664841 79.650650,214.664841 114.488945,214.664841 
	C114.488945,212.635056 114.489090,210.848404 114.488914,209.061737 
	C114.486656,185.238846 114.445618,161.415863 114.498016,137.593094 
	C114.525177,125.244392 121.842674,115.248116 133.727722,112.200279 
	C138.290176,111.030273 143.254837,111.398895 148.039902,111.132797 
	C158.298477,110.562340 168.899612,111.498077 178.753510,109.206726 
	C204.865372,103.134834 220.424728,80.092537 218.036774,53.267448 
	C215.851883,28.723444 195.432358,9.512283 168.272003,7.231474 
z"/>
<path fill="#0F0F0F" opacity="1.000000" stroke="none" 
	d="
M168.724121,7.264899 
	C195.432358,9.512283 215.851883,28.723444 218.036774,53.267448 
	C220.424728,80.092537 204.865372,103.134834 178.753510,109.206726 
	C168.899612,111.498077 158.298477,110.562340 148.039902,111.132797 
	C143.254837,111.398895 138.290176,111.030273 133.727722,112.200279 
	C121.842674,115.248116 114.525177,125.244392 114.498016,137.593094 
	C114.445618,161.415863 114.486656,185.238846 114.488914,209.061737 
	C114.489090,210.848404 114.488945,212.635056 114.488945,214.664841 
	C79.650650,214.664841 45.406361,214.664841 10.900547,214.664841 
	C10.900547,177.237335 10.900547,140.038177 10.900547,101.919662 
	C13.057233,102.814903 14.529909,103.342758 15.930513,104.019737 
	C58.029934,124.368225 106.909721,99.077660 114.579475,52.967369 
	C119.263588,24.806616 140.075592,7.078718 168.724121,7.264899 
z"/>
</svg>